<?xml version="1.0" encoding="UTF-8" standalone="no"?>
<svg
   viewBox="0 0 5562.48 1522.6488"
   version="1.1"
   id="svg985"
   width="5562.48"
   height="1522.6488"
   xmlns="http://www.w3.org/2000/svg"
   xmlns:svg="http://www.w3.org/2000/svg">
  <g
     id="g1678"
     transform="translate(-146.99998,-54.149402)">
    <path
       class="d"
       d="m 0.21,17.2 h 7.48 a 0.89,0.89 0 0 1 0.89,0.89 v 5 A 0.89,0.89 0 0 1 7.69,23.98 H 0.21 Z"
       transform="rotate(-90,4.395,20.585)"
       id="path961" />
    <path
       class="e"
       d="m 7.78,24.77 v 6.41 A 0.33,0.33 0 0 1 7.45,31.51 H 6.07 A 5.06,5.06 0 0 1 1,26.45 v -1.68 z"
       id="path963" />
    <path
       class="d"
       d="m 8.56,8.89 h 5.88 a 0.89,0.89 0 0 1 0.89,0.89 v 5 a 0.89,0.89 0 0 1 -0.89,0.89 H 8.56 Z"
       id="path965" />
    <path
       class="e"
       d="m 8.56,8.89 v 6.77 H 1.34 A 0.33,0.33 0 0 1 1,15.33 V 13.65 A 4.76,4.76 0 0 1 5.78,8.89 Z"
       id="path967" />
    <path
       class="f"
       d="m 16.11,32.26 h 7.51 a 0.89,0.89 0 0 1 0.89,0.89 v 5 a 0.89,0.89 0 0 1 -0.89,0.89 h -7.51 z"
       transform="rotate(180,20.31,35.64)"
       id="path969" />
    <path
       class="g"
       d="M 31.28,32.59 V 34 a 5.06,5.06 0 0 1 -5.06,5 H 24.51 V 32.26 H 31 a 0.33,0.33 0 0 1 0.28,0.33 z"
       id="path971" />
    <path
       class="f"
       d="m 8.56,24.74 h 5.87 a 0.89,0.89 0 0 1 0.89,0.89 v 5 a 0.89,0.89 0 0 1 -0.89,0.89 H 8.56 Z"
       transform="rotate(-90,11.95,28.12)"
       id="path973" />
    <path
       class="g"
       d="M 15.33,31.51 V 38.7 A 0.33,0.33 0 0 1 15,39 H 13.32 A 4.76,4.76 0 0 1 8.56,34.24 v -2.73 z"
       id="path975" />
    <path
       class="h"
       d="m 31.32,16.47 h 7.35 a 0.89,0.89 0 0 1 0.89,0.89 v 5 a 0.89,0.89 0 0 1 -0.89,0.89 h -7.35 z"
       transform="rotate(90,35.45,19.86)"
       id="path977" />
    <path
       class="i"
       d="M 32.06,15.74 V 9.2 a 0.33,0.33 0 0 1 0.33,-0.33 h 1.39 a 5.06,5.06 0 0 1 5,5.06 v 1.81 z"
       id="path979" />
    <path
       class="h"
       d="m 24.51,24.72 h 5.88 a 0.89,0.89 0 0 1 0.89,0.89 v 5 a 0.89,0.89 0 0 1 -0.89,0.89 h -5.88 z"
       transform="rotate(180,27.895,28.105)"
       id="path981" />
    <path
       class="i"
       d="m 31.28,31.49 v -6.77 h 7.22 a 0.33,0.33 0 0 1 0.33,0.33 v 1.68 a 4.76,4.76 0 0 1 -4.76,4.76 z"
       id="path983" />
    <path
       class="b"
       d="m 15.33,1.34 h 7.51 a 0.89,0.89 0 0 1 0.89,0.89 v 5 a 0.89,0.89 0 0 1 -0.89,0.89 h -7.51 z"
       id="path953" />
    <path
       class="c"
       d="M 15.33,1.34 V 8.11 H 8.89 A 0.33,0.33 0 0 1 8.56,7.78 V 6.4 a 5.06,5.06 0 0 1 5.06,-5.06 z"
       id="path955" />
    <path
       class="b"
       d="m 24.51,8.89 h 5.88 a 0.89,0.89 0 0 1 0.89,0.89 v 5 a 0.89,0.89 0 0 1 -0.89,0.89 h -5.88 z"
       transform="rotate(90,27.895,12.275)"
       id="path957" />
    <path
       class="c"
       d="M 31.28,6.1 V 8.89 H 24.51 V 1.67 a 0.33,0.33 0 0 1 0.33,-0.33 h 1.68 a 4.76,4.76 0 0 1 4.76,4.76 z"
       id="path959" />
  </g>
  <defs
     id="defs943">
    <style
       id="style941">.a{fill:#fff;}.b{fill:#ed2724;}.c{fill:#f05d55;}.d{fill:#009a9a;}.e{fill:#42beb2;}.f{fill:#407ec0;}.g{fill:#55a2d8;}.h{fill:#dc1d3e;}.i{fill:#ee4070;}</style>
  </defs>
</svg>
