<?xml version="1.0" encoding="UTF-8" standalone="no"?>
<!-- Created with Inkscape (http://www.inkscape.org/) -->

<svg
   version="1.1"
   id="svg2294"
   width="68.77169"
   height="80.593124"
   viewBox="0 0 68.77169 80.593124"
   sodipodi:docname="Crio_Dark.png"
   inkscape:version="1.2.2 (b0a8486541, 2022-12-01)"
   inkscape:dataloss="true"
   xmlns:inkscape="http://www.inkscape.org/namespaces/inkscape"
   xmlns:sodipodi="http://sodipodi.sourceforge.net/DTD/sodipodi-0.dtd"
   xmlns="http://www.w3.org/2000/svg"
   xmlns:svg="http://www.w3.org/2000/svg">
  <defs
     id="defs2298" />
  <sodipodi:namedview
     id="namedview2296"
     pagecolor="#ffffff"
     bordercolor="#000000"
     borderopacity="0.25"
     inkscape:showpageshadow="2"
     inkscape:pageopacity="0.0"
     inkscape:pagecheckerboard="0"
     inkscape:deskcolor="#d1d1d1"
     showgrid="false"
     inkscape:zoom="3.7"
     inkscape:cx="109.86486"
     inkscape:cy="110"
     inkscape:window-width="1896"
     inkscape:window-height="1026"
     inkscape:window-x="10"
     inkscape:window-y="40"
     inkscape:window-maximized="1"
     inkscape:current-layer="g2300" />
  <g
     inkscape:groupmode="layer"
     inkscape:label="Image"
     id="g2300"
     transform="translate(-89.43644,-68.000656)">
    <path
       style="fill:#ffffff;stroke-width:0.482744"
       d="m 122.05366,148.32846 c -1.5556,-0.30625 -25.741831,-13.78485 -27.481253,-15.31487 -0.765954,-0.67375 -1.703606,-1.85361 -2.08367,-2.62191 -0.729217,-1.47412 -3.052296,-21.20624 -3.052296,-25.92605 0,-2.60599 0.773607,-4.969965 2.175448,-6.647713 0.549961,-0.658203 0.506744,-1.055786 -0.293016,-2.695623 -0.515966,-1.05795 -0.938121,-2.402009 -0.938121,-2.986799 0,-1.636306 3.246462,-8.043004 4.516403,-8.912847 1.790732,-1.226559 4.884708,-1.744204 8.204085,-1.372605 3.11292,0.34849 4.56141,1.293902 5.95883,3.889276 0.47221,0.877015 0.71564,0.804176 4.18758,-1.25305 2.02742,-1.201306 3.788,-2.4567 3.9124,-2.789763 0.12452,-0.333062 -0.31122,-2.276508 -0.96809,-4.318766 -0.65684,-2.042259 -1.04952,-3.712367 -0.87261,-3.711352 0.177,0.001 1.01734,0.445231 1.8676,0.987147 2.04369,1.302559 2.54452,1.261594 2.02542,-0.165673 -0.23024,-0.633034 -0.75969,-2.351625 -1.17657,-3.819088 l -0.75795,-2.668117 3.13402,3.202123 3.13405,3.202121 -0.31362,-2.22108 c -0.31215,-2.210754 -0.29167,-2.190235 4.40529,4.414392 4.15214,5.838531 5.072,6.842798 7.65892,8.361735 2.80232,1.645388 2.96377,1.68227 3.44618,0.787245 0.27833,-0.516461 1.04436,-1.527393 1.70223,-2.246515 2.08272,-2.276569 9.31222,-2.437818 12.46543,-0.278032 1.24945,0.855813 4.5164,7.265702 4.5164,8.861375 0,0.556482 -0.44385,1.970288 -0.98638,3.141794 l -0.98638,2.130011 1.20368,1.495366 c 1.91973,2.384958 1.9816,4.184058 0.59981,17.439958 -1.32031,12.66606 -1.75349,14.6101 -3.66515,16.44827 -1.43989,1.38454 -25.5995,14.82373 -27.79467,15.46127 -1.7153,0.49817 -1.84072,0.50247 -3.744,0.12775 z m 16.46712,-9.58668 c 6.89252,-3.83245 12.81149,-7.19972 13.1532,-7.48284 1.53154,-1.26891 2.13492,-3.88501 3.20219,-13.88365 1.46115,-13.68834 1.45597,-15.10146 -0.062,-16.9873 -0.67245,-0.83543 -6.17928,-4.471389 -12.57864,-8.305226 -9.93733,-5.953426 -11.58954,-7.116921 -13.01282,-9.163722 -1.80604,-2.597185 -2.25328,-2.893505 -1.8625,-1.233934 0.18592,0.789269 -0.37874,0.360858 -1.95159,-1.480898 -1.2172,-1.425292 -2.35762,-2.591359 -2.53426,-2.59126 -0.17659,9.8e-5 -0.12349,0.720563 0.11804,1.601034 0.24157,0.88047 0.4392,1.662363 0.4392,1.737538 0,0.07518 -0.84141,-0.312047 -1.86981,-0.860495 -1.02839,-0.548447 -1.97508,-0.997178 -2.10376,-0.997178 -0.12878,0 0.0595,0.869449 0.41819,1.932107 l 0.65209,1.93211 -12.12281,7.29228 c -15.519416,9.335461 -15.452087,9.287902 -16.305632,11.517884 -0.650641,1.69988 -0.612803,2.84824 0.433675,13.16212 1.28542,12.66883 1.624529,14.37412 3.151018,15.8456 1.043714,1.00609 17.607089,10.45596 24.205889,13.81011 2.39434,1.21704 3.68994,1.60334 4.70176,1.40188 0.76819,-0.15302 7.03605,-3.41372 13.92858,-7.24616 z m -19.46859,-5.06773 c -0.36831,-0.38501 -0.93071,-2.69714 -1.24981,-5.13809 -0.54704,-4.18453 -0.65775,-4.47168 -1.93793,-5.026 -2.41444,-1.04546 -4.09038,-5.41385 -2.23006,-5.81265 0.56102,-0.12025 0.82627,0.12996 0.82627,0.77966 0,0.52622 0.44036,1.54198 0.97858,2.25726 0.90023,1.1964 1.25928,1.3005 4.48546,1.3005 h 3.5069 v -2.61968 c 0,-2.58204 -0.0272,-2.63217 -1.88862,-3.49071 -3.67065,-1.69295 -1.93208,-4.74823 2.7019,-4.74823 1.88703,0 2.72803,0.24695 3.46514,1.01749 1.33981,1.40058 0.9991,2.52091 -1.09137,3.58871 -1.72168,0.87942 -1.77059,0.97828 -1.77059,3.57841 v 2.67401 h 3.45885 c 2.98199,0 3.59391,-0.15311 4.43834,-1.11055 0.53872,-0.61079 1.05381,-1.53635 1.14465,-2.05679 0.20936,-1.19935 1.25791,-1.59439 1.61923,-0.61006 0.45976,1.25247 -1.24937,4.30259 -2.86116,5.10606 -1.43602,0.71587 -1.51855,0.92258 -2.1003,5.26093 -0.33307,2.4837 -0.82164,4.79343 -1.08571,5.13277 -0.71403,0.91752 -9.51983,0.84728 -10.40977,-0.0831 z m 3.90726,-2.43581 c 0,-0.63885 0.13642,-2.52677 0.30333,-4.19538 l 0.30334,-3.03385 h -2.35199 -2.35198 l 0.41129,3.08484 c 0.7016,5.26238 0.7203,5.30591 2.27853,5.30591 1.16313,0 1.40748,-0.20164 1.40748,-1.16152 z m 5.71142,-1.05956 c 0.16644,-1.08586 0.43919,-2.91824 0.60621,-4.07198 l 0.30369,-2.09769 h -2.10242 c -1.15632,0 -2.20795,0.17852 -2.33695,0.39671 -0.12893,0.21819 -0.11011,2.11773 0.0422,4.22119 l 0.27671,3.82448 1.45403,-0.1492 c 1.29731,-0.13319 1.48665,-0.36201 1.75658,-2.1235 z m -21.21024,-22.11921 c -1.2739,-1.41752 -1.38076,-4.29708 -0.20035,-5.39852 1.71607,-1.60123 4.8318,-1.12255 5.70295,0.87617 0.83599,1.91802 0.67296,3.11641 -0.60581,4.4532 -1.48713,1.55457 -3.53587,1.5835 -4.89679,0.0691 z m 27.38498,0 c -1.34052,-1.49165 -1.37917,-4.294 -0.0763,-5.52666 1.43674,-1.35923 3.70725,-1.15839 5.02626,0.4446 1.42294,1.72933 1.40425,3.48927 -0.0534,5.01291 -1.48712,1.55457 -3.53587,1.5835 -4.89679,0.0691 z m -34.1067,-16.417472 c 3.39199,-2.056872 6.16727,-3.959391 6.16727,-4.227821 0,-2.800814 -5.72467,-4.403301 -9.632553,-2.696411 -1.203727,0.525764 -1.924476,1.418047 -3.053843,3.780634 -0.813041,1.700849 -1.478259,3.397951 -1.478259,3.771342 0,0.631671 1.337084,3.112025 1.677596,3.112025 0.0839,0 2.927796,-1.682897 6.319789,-3.739769 z m 53.56454,2.523203 c 1.04006,-1.659351 0.98266,-2.11385 -0.71572,-5.666801 -1.12938,-2.362587 -1.85013,-3.25487 -3.05384,-3.780634 -3.26573,-1.426406 -7.99459,-0.568272 -9.26587,1.681458 l -0.78958,1.397271 6.23142,3.765136 c 3.42728,2.070824 6.36633,3.77751 6.53125,3.792637 0.16482,0.01504 0.64293,-0.519957 1.06234,-1.189067 z"
       id="path83987"
       inkscape:export-filename="../Code/2023/v1-portfolio/src/assets/crio.svg"
       inkscape:export-xdpi="96"
       inkscape:export-ydpi="96" />
  </g>
</svg>
