<?xml version="1.0" encoding="UTF-8" standalone="no"?>
<!-- Created with Inkscape (http://www.inkscape.org/) -->

<svg
   version="1.1"
   id="svg1123"
   width="453.71338"
   height="500.69891"
   viewBox="0 0 453.71338 500.69892"
   sodipodi:docname="crio-icon-512x512.png"
   inkscape:export-filename="crioLight.svg"
   inkscape:export-xdpi="96"
   inkscape:export-ydpi="96"
   xmlns:inkscape="http://www.inkscape.org/namespaces/inkscape"
   xmlns:sodipodi="http://sodipodi.sourceforge.net/DTD/sodipodi-0.dtd"
   xmlns="http://www.w3.org/2000/svg"
   xmlns:svg="http://www.w3.org/2000/svg">
  <defs
     id="defs1127" />
  <sodipodi:namedview
     id="namedview1125"
     pagecolor="#606060"
     bordercolor="#000000"
     borderopacity="0.25"
     inkscape:showpageshadow="2"
     inkscape:pageopacity="0"
     inkscape:pagecheckerboard="0"
     inkscape:deskcolor="#d1d1d1"
     showgrid="false" />
  <g
     inkscape:groupmode="layer"
     inkscape:label="Image"
     id="g1129"
     transform="translate(-114.47663,-94.051872)">
    <path
       style="fill:#ffffff;fill-opacity:1;stroke-width:0.838657"
       d="m 344.68797,594.25434 c 1.68583,-0.46237 -0.7924,-0.68883 -7.51092,-0.68636 -6.71428,0.003 -10.13131,-0.30956 -10.34295,-0.94449 -0.18535,-0.55605 -1.15447,-0.73776 -2.3433,-0.43938 -1.50198,0.37696 -2.02724,0.16612 -2.02724,-0.81379 0,-0.83601 -0.46673,-1.14348 -1.26866,-0.83574 -0.69777,0.26776 -1.82995,0.021 -2.51597,-0.54834 -0.68602,-0.56935 -1.25309,-0.70592 -1.26015,-0.30349 -0.007,0.40243 -0.29011,0.33462 -0.62899,-0.15067 -0.70812,-1.01406 -6.2871,-3.73026 -7.66182,-3.73026 -0.50687,0 -0.92157,-0.36976 -0.92157,-0.82169 0,-1.03906 -8.34669,-5.86916 -10.16045,-5.8797 -0.745,-0.004 -2.33562,-0.77958 -3.53471,-1.72278 -1.19909,-0.94321 -2.47652,-1.75801 -2.83874,-1.81066 -2.20239,-0.32017 -3.59387,-0.96834 -3.59387,-1.67406 0,-0.44591 -0.42638,-0.66862 -0.94752,-0.4949 -0.52113,0.17371 -2.00169,-0.73832 -3.29011,-2.02675 -1.28843,-1.28843 -2.93772,-2.3426 -3.6651,-2.3426 -2.14636,0 -2.48017,-0.11567 -4.67712,-1.62058 -2.52141,-1.72717 -7.8951,-4.25002 -9.05258,-4.25002 -0.45752,0 -1.04319,-0.55075 -1.3015,-1.22388 -0.47536,-1.23878 -8.08233,-5.48537 -9.82601,-5.48537 -0.5207,0 -1.99108,-0.74364 -3.26751,-1.65253 -1.27642,-0.90891 -2.56121,-1.4121 -2.85509,-1.11822 -0.29389,0.29389 -0.53433,0.094 -0.53433,-0.4441 0,-0.53814 -0.75479,-0.97844 -1.67731,-0.97844 -0.92253,0 -1.67732,-0.40884 -1.67732,-0.90854 0,-0.4997 -0.42242,-0.76774 -0.93871,-0.59565 -0.51629,0.17211 -2.00952,-0.68738 -3.31828,-1.90994 -1.30877,-1.22258 -3.62247,-2.67053 -5.14156,-3.21767 -1.51908,-0.54715 -4.55479,-1.92059 -6.74603,-3.0521 -2.19123,-1.13151 -4.50957,-2.05729 -5.15188,-2.05729 -0.6423,0 -1.37916,-0.55076 -1.63747,-1.22389 -0.5201,-1.35537 -8.84405,-5.85589 -9.54125,-5.15869 -0.2417,0.24169 -1.71375,-0.53252 -3.27124,-1.72047 -1.55749,-1.18795 -2.83757,-1.83207 -2.84463,-1.43138 -0.007,0.40069 -0.29011,0.35114 -0.629,-0.11013 -0.33888,-0.46126 -1.37094,-1.3044 -2.29346,-1.87365 -0.92252,-0.56924 -3.20397,-1.97505 -5.06988,-3.12401 -1.86592,-1.14897 -4.13029,-2.24867 -5.03195,-2.4438 -3.42539,-0.74127 -5.41332,-1.58623 -5.41332,-2.3009 0,-0.40746 -0.5661,-0.74085 -1.25799,-0.74085 -0.69189,0 -1.25798,-0.33338 -1.25798,-0.74084 0,-0.62806 -0.75614,-1.00718 -4.19329,-2.10244 -0.23063,-0.0735 -2.07988,-1.3508 -4.10945,-2.83846 -2.02957,-1.48765 -4.10524,-2.71311 -4.61261,-2.72324 -0.50737,-0.0102 -2.53331,-0.74955 -4.50208,-1.64316 -1.96877,-0.8936 -3.81355,-1.60788 -4.09952,-1.58726 -0.28596,0.0206 -0.75082,-0.27887 -1.03303,-0.66551 -0.2822,-0.38664 -2.21137,-1.83411 -4.28704,-3.21659 -2.07568,-1.3825 -4.46179,-3.36276 -5.30248,-4.4006 -0.84069,-1.03783 -2.02802,-1.88697 -2.63851,-1.88697 -1.84107,0 -13.9059,-13.41791 -14.43256,-16.05117 -0.26392,-1.31961 -0.81008,-2.39929 -1.21368,-2.39929 -0.4036,0 -0.73382,-0.75479 -0.73382,-1.67731 0,-0.92252 -0.40283,-1.67731 -0.89518,-1.67731 -0.51352,0 -0.6682,-0.71512 -0.36281,-1.67732 0.36279,-1.14305 0.15071,-1.67731 -0.66584,-1.67731 -0.82586,0 -1.07366,-0.65154 -0.79741,-2.09664 0.24545,-1.28394 0.0149,-2.09664 -0.59466,-2.09664 -0.68125,0 -0.95909,-1.78687 -0.88021,-5.66094 0.12626,-6.20173 -0.58465,-10.9523 -1.88254,-12.57985 -0.56822,-0.71254 -0.53447,-1.04832 0.10536,-1.04832 1.20154,0 1.24174,-4.79204 0.0436,-5.19143 -0.53044,-0.17682 -0.88992,-2.78926 -0.87856,-6.38465 0.0106,-3.36331 -0.31584,-5.8783 -0.72984,-5.62244 -0.418,0.25834 -0.53721,-0.84269 -0.2697,-2.49112 0.34727,-2.14002 0.1718,-2.9541 -0.63674,-2.9541 -0.86809,0 -0.89248,-0.22364 -0.10973,-1.00639 1.25259,-1.25259 1.30703,-4.2281 0.0994,-5.43568 -0.49882,-0.49883 -0.89549,-3.30007 -0.88151,-6.22498 0.014,-2.92493 -0.29585,-5.5171 -0.68853,-5.76039 -0.9444,-0.5851 -1.27682,-5.92108 -0.48472,-7.78058 0.34385,-0.80721 0.35561,-2.1281 0.0261,-2.9353 -0.55037,-1.34834 -0.65752,-1.33129 -1.31797,0.20966 -0.44679,1.04245 -0.52621,-0.0219 -0.20982,-2.81195 0.37875,-3.33996 0.21011,-4.69822 -0.65873,-5.30545 -0.89997,-0.62899 -0.92738,-0.91375 -0.1195,-1.24156 1.29238,-0.5244 1.39336,-4.22409 0.12682,-4.64627 -0.56915,-0.18972 -0.91155,-2.84578 -0.89546,-6.94639 0.0186,-4.73897 -0.21856,-6.2913 -0.82856,-5.42365 -0.65312,0.92897 -0.75155,0.74946 -0.4175,-0.76142 0.2404,-1.08734 0.0989,-2.86661 -0.31454,-3.95393 -0.4622,-1.21567 -0.44103,-2.16891 0.055,-2.47546 1.078,-0.66624 1.0287,-4.03525 -0.0752,-5.13915 -0.48499,-0.48499 -0.8929,-3.20224 -0.90647,-6.03833 -0.0142,-2.96416 -0.39208,-5.15652 -0.88885,-5.15652 -0.52966,0 -0.65577,-1.1109 -0.32578,-2.8699 0.32367,-1.72531 0.17741,-3.093 -0.36672,-3.4293 -0.63372,-0.39166 -0.5969,-0.93075 0.12278,-1.79792 0.81271,-0.97926 0.80264,-1.86145 -0.0481,-4.21408 -0.59178,-1.63655 -1.0447,-5.19696 -1.00648,-7.91202 0.0382,-2.71507 -0.29922,-4.93649 -0.74985,-4.93649 -0.45064,0 -0.81935,-2.07567 -0.81935,-4.61261 0,-2.67415 0.37156,-4.61261 0.88414,-4.61261 0.57055,0 0.75376,-2.0822 0.51654,-5.8706 -0.20218,-3.22883 -0.0339,-5.8706 0.37385,-5.8706 0.40779,0 0.74144,-0.80753 0.74144,-1.79453 0,-0.98698 0.58299,-2.22081 1.29554,-2.74183 0.71254,-0.52103 1.36409,-1.85747 1.44789,-2.96988 0.0838,-1.1124 1.01038,-2.88058 2.05909,-3.92929 1.04871,-1.04871 1.90674,-2.62209 1.90674,-3.4964 0,-0.89901 2.20478,-3.50733 5.07473,-6.00353 2.7911,-2.42763 5.69785,-5.36487 6.45944,-6.52721 1.34127,-2.04704 1.30887,-2.17381 -1.03281,-4.04101 -1.32964,-1.06022 -2.47973,-2.77193 -2.55575,-3.80381 -0.076,-1.03187 -1.14009,-2.73791 -2.3646,-3.79119 -1.22451,-1.05328 -2.22639,-2.68794 -2.22639,-3.63259 0,-0.94466 -0.37739,-1.71754 -0.83865,-1.71754 -0.46126,0 -0.83866,-0.73252 -0.83866,-1.62782 0,-0.8953 -0.40797,-1.87997 -0.90661,-2.18814 -0.49864,-0.30817 -0.68798,-1.43139 -0.42077,-2.49605 0.26721,-1.06466 0.10658,-2.06217 -0.35696,-2.21668 -0.54438,-0.18146 -0.48667,-1.22445 0.16299,-2.94559 0.79297,-2.10081 0.7799,-3.16045 -0.0617,-5.00764 -0.70705,-1.55181 -0.77267,-2.44127 -0.19431,-2.63405 0.49658,-0.16554 0.66127,-1.35083 0.38182,-2.74808 -0.28057,-1.40281 -0.13258,-2.457 0.3449,-2.457 0.45996,0 1.07854,-1.51489 1.37461,-3.36643 0.29607,-1.85153 1.3071,-4.13521 2.24673,-5.07484 1.10094,-1.10095 1.52396,-2.28957 1.18967,-3.34283 -0.29304,-0.92329 -0.12926,-1.63441 0.37643,-1.63441 0.49235,0 0.89517,-0.5661 0.89517,-1.25799 0,-0.69189 0.41778,-1.25798 0.92839,-1.25798 0.51061,0 0.71115,-0.5661 0.44565,-1.25799 -0.26551,-0.69189 -0.11719,-1.25798 0.3296,-1.25798 0.44678,0 0.82072,-0.47175 0.83098,-1.04833 0.0103,-0.57657 0.72593,-1.96852 1.59039,-3.09323 0.86445,-1.1247 1.38178,-2.53993 1.14961,-3.14496 -0.23217,-0.60503 -0.004,-1.10005 0.50625,-1.10005 0.51061,0 0.92839,-0.51989 0.92839,-1.1553 0,-0.63541 0.55402,-1.6151 1.23117,-2.17708 0.67715,-0.56198 1.14889,-1.30192 1.04832,-1.64432 -0.10057,-0.34239 3.7798,-4.83617 8.62305,-9.98616 7.39426,-7.86257 9.30761,-9.4472 11.93561,-9.88499 1.72135,-0.28674 2.92561,-0.85162 2.67614,-1.25526 -0.24947,-0.40366 0.51219,-0.73391 1.69256,-0.73391 1.18038,0 2.14614,-0.42678 2.14614,-0.94839 0,-0.6092 1.01442,-0.78377 2.83635,-0.48811 1.55999,0.25315 3.21568,0.0809 3.6793,-0.38268 0.56482,-0.56482 1.02886,-0.54213 1.40643,0.0688 0.70717,1.14423 4.3824,1.19713 5.0771,0.073 0.70076,-1.13385 17.10312,-1.0749 20.39689,0.0733 1.92321,0.67043 3.40871,0.65037 5.60888,-0.0757 2.3138,-0.76363 3.26876,-0.75869 4.20914,0.0217 0.77135,0.64017 2.32373,0.80172 4.24338,0.4416 2.19379,-0.41157 2.86175,-0.30043 2.42656,0.40372 -0.43676,0.7067 0.78715,0.89278 4.48883,0.68249 4.28937,-0.24368 5.14935,-0.0585 5.47135,1.17852 0.23628,0.90766 1.18718,1.46765 2.49217,1.46765 1.49648,0 3.22656,1.27625 5.94911,4.38854 2.11145,2.4137 3.839,4.86678 3.839,5.45127 0,0.5845 0.28527,1.06273 0.63393,1.06273 0.34866,0 1.16796,1.22653 1.82067,2.72563 0.65271,1.4991 2.01756,3.85782 3.03301,5.24161 1.01544,1.38378 1.70064,2.90863 1.52265,3.38854 -0.17798,0.47991 0.15566,1.52802 0.74143,2.32911 0.99896,1.36616 1.33795,1.3249 5.46258,-0.66489 2.41864,-1.16679 4.39752,-2.68663 4.39752,-3.37744 0,-0.69079 0.28305,-1.20551 0.62899,-1.1438 1.89196,0.33748 6.3237,-1.41354 7.57354,-2.99237 1.52703,-1.92899 3.75597,-3.11126 6.40296,-3.39626 0.88346,-0.0951 2.26484,-0.9862 3.06973,-1.98019 0.80488,-0.99399 2.01248,-1.80726 2.68354,-1.80726 0.67107,0 2.17968,-0.75479 3.35248,-1.67731 1.17279,-0.92252 2.5042,-1.67731 2.95867,-1.67731 0.45448,0 1.0411,-0.55973 1.30363,-1.24385 0.26416,-0.6884 1.03658,-1.02923 1.72974,-0.76324 0.70969,0.27233 2.14089,-0.40785 3.30263,-1.56959 1.98805,-1.98805 3.99244,-3.14695 6.24505,-3.61079 0.60064,-0.12368 2.11022,-0.9028 3.35463,-1.73139 1.96074,-1.30554 2.0564,-1.54854 0.71709,-1.82158 -1.05138,-0.21433 -1.4117,-0.82658 -1.12705,-1.91506 0.23012,-0.88 0.0764,-1.81135 -0.34152,-2.06966 -0.41796,-0.25825 -0.75992,-1.39081 -0.75992,-2.51674 0,-1.12594 -0.32917,-2.04715 -0.73147,-2.04715 -0.40231,0 -0.9755,-1.52607 -1.27375,-3.39126 -0.29826,-1.86519 -0.88504,-4.03521 -1.30395,-4.82227 -1.34711,-2.53093 -1.98512,-4.74874 -1.79895,-6.2533 0.0999,-0.80721 -0.21951,-1.46765 -0.70976,-1.46765 -0.49026,0 -0.89138,-0.94349 -0.89138,-2.09664 0,-1.15316 -0.40282,-2.09665 -0.89517,-2.09665 -0.50041,0 -0.67029,-0.70855 -0.38521,-1.60673 0.28048,-0.88371 0.11721,-1.84947 -0.36281,-2.14614 -0.48003,-0.29667 -0.87278,-1.67159 -0.87278,-3.05537 0,-1.67724 -0.32035,-2.31799 -0.96096,-1.92206 -0.67631,0.41797 -0.79579,-0.0642 -0.40336,-1.62782 0.32993,-1.31454 0.20865,-2.22173 -0.29701,-2.22173 -0.47006,0 -0.85464,-0.94349 -0.85464,-2.09664 0,-1.15316 -0.37739,-2.09664 -0.83865,-2.09664 -0.46127,0 -0.83866,-0.98633 -0.83866,-2.19183 0,-2.0183 0.21579,-2.15147 2.72563,-1.68207 4.59459,0.85932 6.84344,1.97531 13.59239,6.74522 1.2555,0.88734 2.90934,1.67862 3.67522,1.75841 2.44907,0.25514 6.00512,2.31122 6.00512,3.47212 0,0.61786 0.42563,1.12337 0.94585,1.12337 1.11851,0 0.30087,-6.46503 -1.01874,-8.05507 -0.4609,-0.55534 -0.59213,-1.9893 -0.29163,-3.18658 0.42051,-1.67546 0.23198,-2.17686 -0.81852,-2.17686 -1.0371,0 -1.23851,-0.50352 -0.83866,-2.09664 0.32423,-1.29187 0.16942,-2.09664 -0.40335,-2.09664 -0.51127,0 -0.92958,-0.92122 -0.92958,-2.04715 0,-1.12593 -0.32678,-2.24911 -0.72618,-2.49595 -0.3994,-0.24685 -0.5323,-1.4631 -0.29531,-2.70279 0.34807,-1.82082 0.17075,-2.15415 -0.92272,-1.73455 -1.12671,0.43236 -1.26612,0.0821 -0.83176,-2.08973 0.37235,-1.86176 0.24409,-2.4375 -0.44774,-2.00992 -0.63718,0.39379 -0.96957,-0.13653 -0.96957,-1.54691 0,-1.18038 -0.40282,-2.14614 -0.89517,-2.14614 -0.52052,0 -0.66702,-0.71886 -0.35004,-1.71756 0.29982,-0.94466 0.092,-2.26353 -0.4618,-2.93083 -0.55381,-0.6673 -0.80902,-1.97008 -0.56713,-2.895055 0.28623,-1.094531 0.0279,-1.68178 -0.73967,-1.68178 -1.28167,0 -1.53147,-1.502537 -0.5155,-3.100694 0.37416,-0.588586 1.09533,-0.721576 1.74284,-0.321397 1.4269,0.881873 23.46453,22.711196 22.92792,22.711196 -0.57804,0 13.27398,14.43832 15.19859,15.84189 1.52179,1.10981 1.57375,0.98978 1.08911,-2.51597 -0.2799,-2.02475 -0.69405,-4.62485 -0.92033,-5.77801 -0.22629,-1.15315 -0.63375,-3.41752 -0.90548,-5.03194 -0.46041,-2.73545 -1.04132,-4.40821 -3.09616,-8.91562 -0.44808,-0.98288 -0.5459,-2.63393 -0.21738,-3.669 0.38829,-1.22338 0.19905,-2.13429 -0.54076,-2.60306 -0.8885,-0.56298 -0.81854,-0.72393 0.31907,-0.73395 1.2492,-0.011 3.17879,2.29655 6.92943,8.28675 1.20137,1.91872 5.21114,6.92179 7.15094,8.92236 0.91022,0.93875 1.65496,2.0995 1.65496,2.57945 0,0.47995 0.94349,1.759 2.09664,2.84233 1.15316,1.08333 2.09664,2.33496 2.09664,2.7814 0,0.44645 1.69829,2.79958 3.77396,5.22918 2.07568,2.4296 3.77396,4.68342 3.77396,5.00848 0,0.32506 1.79263,2.71971 3.98362,5.32144 2.19099,2.60173 4.36101,5.33616 4.82227,6.07651 2.27411,3.65003 4.41722,6.57416 7.7109,10.52101 1.98603,2.37987 3.61568,4.64424 3.62143,5.03194 0.006,0.38769 1.50019,2.30883 3.32097,4.26919 1.82079,1.96036 3.09076,3.56429 2.82216,3.56429 -0.26861,0 -0.0323,0.54956 0.52518,1.22125 0.55745,0.67168 0.84062,1.52082 0.62928,1.88698 -0.21135,0.36615 1.4064,2.9301 3.595,5.69767 2.99283,3.78454 4.44259,4.97868 5.84825,4.81712 1.17235,-0.13475 2.48519,0.56858 3.52224,1.88697 0.90931,1.15599 2.19711,2.1018 2.86178,2.1018 1.34726,0 4.15396,1.44511 6.51539,3.35463 0.85563,0.69189 1.79912,1.21168 2.09664,1.1551 1.17064,-0.22266 3.12582,0.93942 4.49894,2.67398 1.23036,1.55422 5.64186,3.31908 7.52242,3.0094 0.31784,-0.0523 0.80214,0.61139 1.07621,1.47493 0.8957,2.8221 10.08711,5.24011 10.08711,2.65364 0,-0.65641 1.03783,-2.23131 2.3063,-3.49977 1.26847,-1.26847 2.30631,-3.00888 2.30631,-3.86757 0,-0.85869 1.03784,-2.82346 2.30631,-4.36613 4.94857,-6.01834 9.82851,-10.97478 10.80538,-10.97478 0.56305,0 1.71157,-0.84914 2.55226,-1.88697 1.26601,-1.56292 2.21266,-1.84309 5.51213,-1.63137 2.42226,0.15543 3.98362,-0.095 3.98362,-0.6389 0,-0.5739 1.20237,-0.70225 3.35463,-0.35809 2.75377,0.44034 3.35463,0.29313 3.35463,-0.82195 0,-1.24331 0.27676,-1.24765 3.26688,-0.0512 2.69458,1.07816 3.90373,1.13566 6.90215,0.32827 4.32576,-1.16481 19.4832,-1.1307 19.88284,0.0447 0.38962,1.14597 5.17172,1.03583 5.17172,-0.11911 0,-0.66422 0.35851,-0.64382 1.21774,0.0693 0.69519,0.57696 1.99983,0.76241 3.04032,0.43217 1.31311,-0.41676 1.64698,-0.29433 1.19438,0.43799 -0.46899,0.75884 0.46099,0.94102 3.66945,0.71883 3.09691,-0.21445 4.29751,0.003 4.29714,0.78053 -2.9e-4,0.59296 1.60341,1.76734 3.56377,2.60971 1.98953,0.85491 5.04642,3.27729 6.91892,5.48275 1.84504,2.17314 4.95856,5.5428 6.91892,7.48812 1.96036,1.94533 3.56429,4.19928 3.56429,5.00878 0,0.80949 0.84914,2.32095 1.88698,3.35879 1.98283,1.98283 2.33272,2.56928 2.95679,4.9557 0.21109,0.80721 0.71718,1.46765 1.12464,1.46765 0.40746,0 0.74084,0.56609 0.74084,1.25799 0,0.69189 0.36556,1.25798 0.81234,1.25798 0.44678,0 0.59511,0.56609 0.3296,1.25799 -0.26551,0.69189 -0.065,1.25798 0.44565,1.25798 0.51062,0 0.92838,0.75479 0.92838,1.67732 0,0.92252 0.3774,1.67731 0.83866,1.67731 0.46126,0 0.77874,0.28305 0.70551,0.62899 -0.0732,0.34595 0.0839,1.19509 0.34929,1.88698 0.26533,0.69189 0.71224,2.30543 0.99313,3.58563 0.28089,1.2802 1.23257,3.0495 2.11485,3.93177 2.83484,2.83485 4.15624,22.67425 1.5102,22.67425 -0.45895,0 -0.59015,0.92725 -0.29665,2.09664 0.30345,1.20905 0.16443,2.09664 -0.32841,2.09664 -0.47005,0 -0.85463,0.51988 -0.85463,1.1553 0,0.63541 -0.57108,1.62924 -1.26906,2.20852 -0.69798,0.57927 -1.20455,1.47462 -1.12571,1.98966 0.23234,1.51786 -1.1545,4.20884 -2.76755,5.3701 -0.82435,0.59347 -1.90466,2.58618 -2.40067,4.42826 -0.49603,1.84207 -1.26165,3.12686 -1.70138,2.8551 -2.41485,-1.49246 -0.1044,1.57789 4.76506,6.33229 3.06051,2.9882 6.05787,6.59532 6.66079,8.01583 0.60293,1.4205 1.68414,3.07064 2.40267,3.66697 0.71855,0.59634 1.30644,1.76196 1.30644,2.59029 0,2.28169 0.92198,4.20667 1.76519,3.68554 0.41293,-0.2552 0.75078,0.50175 0.75078,1.68213 0,1.18038 0.33366,2.14614 0.74144,2.14614 0.4078,0 0.57604,2.64177 0.37385,5.8706 -0.23721,3.7884 -0.054,5.8706 0.51655,5.8706 0.51258,0 0.88414,1.93846 0.88414,4.61261 0,2.53693 -0.36871,4.61261 -0.81935,4.61261 -0.45063,0 -0.78807,2.22142 -0.74985,4.93649 0.0382,2.71506 -0.4147,6.27547 -1.00649,7.91202 -0.85071,2.35263 -0.86078,3.23482 -0.048,4.21408 0.75957,0.91523 0.77867,1.39256 0.0732,1.82857 -0.59332,0.36669 -0.75308,1.66476 -0.42204,3.42929 0.30619,1.63216 0.18876,2.83926 -0.27621,2.83926 -0.44486,0 -0.82009,2.35229 -0.83385,5.22734 -0.0138,2.88628 -0.41976,5.35891 -0.90647,5.52115 -1.12347,0.3745 -1.15632,4.91712 -0.0405,5.60672 0.56011,0.34616 0.55333,1.0571 -0.0203,2.12893 -0.47368,0.88506 -0.63287,2.65478 -0.35376,3.93272 0.3735,1.71015 0.28315,2.00263 -0.34223,1.10795 -0.60385,-0.86387 -0.84215,0.70537 -0.82364,5.42365 0.0161,4.10061 -0.32631,6.75667 -0.89547,6.94639 -1.26654,0.42218 -1.16556,4.12187 0.12682,4.64627 0.80788,0.32781 0.78047,0.61257 -0.11949,1.24156 -0.86884,0.60723 -1.03748,1.96549 -0.65874,5.30545 0.28,2.46909 0.21107,3.76206 -0.15318,2.87326 -0.61708,-1.50575 -0.70106,-1.51489 -1.23096,-0.13397 -0.31279,0.81511 -0.30948,1.90144 0.008,2.41406 0.82274,1.33121 0.33749,7.66856 -0.61271,8.00203 -1.18157,0.41468 -0.96603,5.80221 0.25178,6.29361 0.83866,0.33841 0.83866,0.43624 0,0.48921 -0.58601,0.037 -1.04832,1.15393 -1.04832,2.53269 0,1.35656 -0.37739,2.69972 -0.83866,2.9848 -1.15925,0.71645 -1.053,4.06279 0.16774,5.28353 0.78274,0.78275 0.75892,1.00639 -0.10719,1.00639 -0.83544,0 -0.9791,0.89024 -0.57516,3.56429 0.36651,2.42625 0.27941,3.16717 -0.27278,2.3205 -0.56039,-0.85925 -0.80509,0.69041 -0.79143,5.01223 0.0117,3.7171 -0.34459,6.37748 -0.87801,6.55529 -1.26965,0.42321 -1.13181,5.18856 0.15053,5.20427 0.76005,0.009 0.78403,0.18227 0.0872,0.62899 -1.06088,0.68012 -2.41199,10.56127 -2.11971,15.50231 0.11269,1.90493 -0.19118,3.14496 -0.77065,3.14496 -0.56824,0 -0.79394,0.85131 -0.55588,2.09665 0.27095,1.41739 0.0257,2.09664 -0.75687,2.09664 -0.81607,0 -1.00238,0.61867 -0.63144,2.09664 0.31862,1.26947 0.16798,2.09664 -0.38181,2.09664 -1.14265,0 -3.69416,4.8247 -3.07841,5.821 0.57388,0.92908 -17.01322,19.33876 -18.47489,19.33876 -0.59097,0 -2.19576,0.94349 -3.5662,2.09664 -1.37045,1.15316 -2.90898,2.09664 -3.41898,2.09664 -0.50999,0 -0.92725,0.3774 -0.92725,0.83866 0,0.46126 -0.28305,0.77822 -0.629,0.70436 -0.34594,-0.0739 -2.32727,0.67264 -4.40294,1.6589 -2.07568,0.98625 -4.18908,1.80148 -4.69645,1.81161 -0.50737,0.0102 -2.58305,1.23559 -4.61261,2.72324 -2.02957,1.48766 -3.87882,2.76497 -4.10945,2.83846 -3.38538,1.07877 -4.19329,1.4444 -4.19329,1.89772 0,0.29486 -1.22653,1.03508 -2.72563,1.64494 -7.4293,3.02233 -9.0992,3.84215 -9.97458,4.89691 -0.52215,0.62916 -2.31261,1.77774 -3.97879,2.5524 -1.66619,0.77466 -3.3067,1.80553 -3.64559,2.29083 -0.33888,0.48529 -0.62193,0.57361 -0.62899,0.19625 -0.007,-0.37736 -1.10894,0.0944 -2.44861,1.04833 -1.33967,0.95393 -2.8618,1.73441 -3.3825,1.73441 -1.74368,0 -9.35065,4.24659 -9.82601,5.48537 -0.25831,0.67313 -0.99518,1.22389 -1.63748,1.22389 -0.6423,0 -2.96064,0.92578 -5.15187,2.05729 -2.19124,1.13151 -5.22695,2.50495 -6.74603,3.0521 -1.5191,0.54714 -3.83279,1.99509 -5.14156,3.21767 -1.30876,1.22256 -2.80199,2.08205 -3.31829,1.90994 -0.51628,-0.17209 -0.93871,0.096 -0.93871,0.59565 0,0.4997 -0.75479,0.90854 -1.67731,0.90854 -0.92252,0 -1.67731,0.4403 -1.67731,0.97844 0,0.53813 -0.24045,0.73799 -0.53433,0.4441 -0.29388,-0.29388 -1.57868,0.20931 -2.8551,1.11822 -1.27642,0.90889 -2.8286,1.65607 -3.44929,1.6604 -1.64923,0.0115 -9.93442,4.9151 -9.93442,5.87969 0,0.45193 -0.48215,0.82169 -1.07144,0.82169 -0.5893,0 -3.13806,1.07223 -5.66392,2.38272 -2.52586,1.3105 -6.00046,2.8474 -7.72134,3.41534 -1.72087,0.56794 -3.79904,1.88461 -4.61815,2.92594 -0.81911,1.04132 -1.95719,1.73734 -2.52909,1.54671 -0.57188,-0.19063 -1.0398,0.0182 -1.0398,0.46414 0,0.63591 -2.74802,1.85731 -4.0132,1.78372 -0.13158,-0.008 -1.22031,0.75779 -2.4194,1.701 -1.19909,0.9432 -2.78971,1.71845 -3.53472,1.72278 -1.81375,0.0105 -10.16044,4.84064 -10.16044,5.8797 0,0.45193 -0.41471,0.82169 -0.92158,0.82169 -1.37471,0 -6.95369,2.7162 -7.66181,3.73026 -0.33889,0.48529 -0.62193,0.5531 -0.629,0.15067 -0.007,-0.40243 -0.57412,-0.26586 -1.26015,0.30349 -0.68601,0.56935 -1.81819,0.8161 -2.51597,0.54834 -0.80193,-0.30774 -1.26866,-2.7e-4 -1.26866,0.83574 0,0.99198 -0.5241,1.19105 -2.09664,0.79637 -1.15315,-0.28943 -2.09664,-0.17964 -2.09664,0.24396 0,0.71323 -1.30064,0.97587 -10.48321,2.1169 -2.82573,0.35112 -2.95795,0.30805 -0.83866,-0.27321 z m 24.74038,-88.12492 c 0,-0.46126 -0.73252,-0.83866 -1.62782,-0.83866 -0.8953,0 -1.86106,0.3774 -2.14614,0.83866 -0.29396,0.47565 0.41063,0.83865 1.62782,0.83865 1.18037,0 2.14614,-0.37739 2.14614,-0.83865 z m -9.64456,-0.77087 c 10.15688,-1.53041 15.69817,-1.88106 15.12722,-0.95724 -1.19195,1.92862 1.03764,0.73942 3.44262,-1.83618 1.84191,-1.9726 2.59261,-3.65246 2.71719,-6.08027 0.0947,-1.84504 0.53301,-3.48042 0.97409,-3.63417 0.44107,-0.15376 0.80195,-0.98063 0.80195,-1.83749 0,-0.85686 0.33664,-1.76599 0.7481,-2.02028 0.41145,-0.25429 0.58252,-2.35224 0.38014,-4.66211 -0.22778,-2.60004 -0.0335,-4.19976 0.50989,-4.19976 0.4929,0 0.87784,-1.81707 0.87784,-4.14378 0,-2.27909 0.37551,-4.37587 0.83446,-4.65952 0.45896,-0.28365 0.79944,-1.72116 0.75661,-3.19446 -0.14002,-4.81718 1.00534,-13.57491 1.81274,-13.86082 1.18194,-0.41852 0.95221,-4.32278 -0.25885,-4.39927 -0.83865,-0.053 -0.83865,-0.15081 0,-0.48922 0.57658,-0.23265 1.04832,-1.12408 1.04832,-1.98094 0,-0.85686 0.41027,-1.81149 0.91172,-2.1214 0.50145,-0.30991 0.74724,-1.19247 0.5462,-1.96124 -0.4679,-1.78922 1.3,-3.44488 3.6784,-3.44488 1.01887,0 1.62115,-0.23133 1.33841,-0.51407 -0.55042,-0.55042 6.73086,-4.50849 8.30462,-4.51435 1.54112,-0.006 7.86439,-7.37744 7.86439,-9.16833 0,-0.90991 0.50021,-1.95618 1.11156,-2.32505 1.58017,-0.95339 2.76239,-3.79322 2.98498,-7.17025 0.0532,-0.80721 0.61929,-1.46765 1.25796,-1.46765 1.86332,0 1.51095,-8.02596 -0.50217,-11.43794 -0.91486,-1.55057 -2.02577,-2.81923 -2.46869,-2.81923 -0.44293,0 -0.57208,-0.37739 -0.287,-0.83865 0.83417,-1.34972 -4.04508,-0.97477 -6.10675,0.46929 -1.43842,1.0075 -1.74216,1.80682 -1.32229,3.47971 0.38218,1.52274 0.2579,1.99428 -0.41589,1.57786 -0.92328,-0.57062 -1.39947,3.51226 -0.99378,8.52064 0.0841,1.03784 -0.25155,1.88698 -0.74582,1.88698 -0.49428,0 -0.89868,0.50864 -0.89868,1.13032 0,1.54354 -9.4009,10.40032 -12.14779,11.44468 -1.26435,0.48071 -10.89611,0.84351 -22.39398,0.84351 h -20.1754 l 0.6195,-16.52201 c 0.65856,-17.56388 1.20378,-19.93138 4.40725,-19.13735 1.27815,0.31681 1.88698,0.0905 1.88698,-0.70141 0,-0.64302 1.13938,-1.39701 2.53196,-1.67552 1.39258,-0.27852 3.35073,-1.26918 4.35143,-2.20147 1.0007,-0.9323 2.44459,-1.69509 3.20864,-1.69509 1.76618,0 4.55223,-3.04193 4.6893,-5.11999 0.24034,-3.64355 0.45549,-4.50331 0.86992,-3.47624 0.66889,1.65766 1.96054,1.22017 1.96054,-0.66406 0,-0.94181 -0.75691,-2.52483 -1.68202,-3.51783 -0.92513,-0.99299 -1.4889,-2.41397 -1.25284,-3.15772 0.44866,-1.41363 -3.48885,-5.81096 -5.55944,-6.20866 -1.23742,-0.23767 -5.2441,-1.87177 -7.68396,-3.13386 -0.82597,-0.42725 -1.8551,-0.55845 -2.28695,-0.29155 -1.09347,0.6758 -7.53315,-1.15193 -7.53315,-2.13809 0,-0.44348 -2.66404,-0.80633 -5.9201,-0.80633 -3.25605,0 -5.71597,0.33027 -5.4665,0.73392 0.45218,0.73164 -5.98253,2.91229 -7.51513,2.5468 -0.96761,-0.23075 -3.30969,0.56244 -6.5356,2.21341 -1.30585,0.66832 -3.07278,1.21512 -3.92652,1.21512 -1.68428,0 -5.40782,4.56636 -4.68165,5.74132 0.24502,0.39646 -0.0965,1.43687 -0.75895,2.31204 -0.66245,0.87516 -1.21645,2.35031 -1.23113,3.27811 -0.0395,2.50036 5.05004,9.70177 7.94058,11.23537 1.38378,0.73419 2.51597,1.90098 2.51597,2.59287 0,0.91157 0.86603,1.23164 3.14496,1.16233 2.1644,-0.0658 3.14496,0.26599 3.14496,1.0643 0,0.84043 0.6353,1.00754 2.30631,0.60667 1.26847,-0.30431 2.04123,-0.26657 1.71725,0.0839 -0.78524,0.84934 1.38418,2.95344 3.04512,2.95344 1.15303,0 1.31789,2.04581 1.31789,16.35381 v 16.3538 h -19.58329 c -12.82043,0 -20.56777,-0.34022 -22.43407,-0.98519 -3.80742,-1.3158 -9.97936,-6.53814 -9.97936,-8.44396 0,-0.83932 -0.54227,-1.73412 -1.20504,-1.98845 -0.66276,-0.25433 -0.99978,-0.99728 -0.74893,-1.65099 0.25086,-0.65372 0.0383,-1.18858 -0.47228,-1.18858 -0.57643,0 -0.92838,-1.9234 -0.92838,-5.07359 0,-7.75266 -2.13413,-10.87831 -7.40684,-10.84805 -1.75283,0.0101 -1.96513,0.18901 -0.97973,0.82582 1.03703,0.67018 0.95602,0.81522 -0.46126,0.82581 -2.16359,0.0162 -3.73806,1.53723 -3.15744,3.05034 0.24394,0.63568 0.0563,1.15579 -0.41705,1.15579 -0.49046,0 -0.87097,2.17381 -0.88474,5.05446 -0.0133,2.77996 0.29403,4.85781 0.68297,4.61743 0.76272,-0.47138 2.10814,1.98045 1.8003,3.28079 -0.24578,1.03821 1.63317,4.65227 3.48554,6.70423 0.80721,0.89418 1.46765,2.23282 1.46765,2.97475 0,1.65672 5.38456,6.79997 8.8059,8.41127 1.38378,0.6517 3.51772,1.85895 4.74207,2.68278 1.22436,0.82383 2.87837,1.49787 3.67559,1.49787 2.22804,0 4.58152,3.297 4.58152,6.41825 0,1.54384 0.4183,2.80698 0.92957,2.80698 0.56654,0 0.7291,0.79875 0.41625,2.04524 -0.28233,1.12489 -0.14227,2.27457 0.31124,2.55486 0.52163,0.32238 0.44864,1.11155 -0.19866,2.14804 -0.80692,1.29208 -0.80329,1.99059 0.0172,3.30436 0.57222,0.91627 1.0404,2.23715 1.0404,2.9353 0,0.69815 0.47174,1.29916 1.04832,1.33558 0.83865,0.053 0.83865,0.15081 0,0.48921 -1.17921,0.47582 -1.45912,5.31518 -0.30744,5.31518 1.09525,0 1.65955,3.97335 0.70052,4.93239 -0.96455,0.96455 -0.11733,3.77148 0.94093,3.11744 0.39429,-0.24368 0.56675,1.80807 0.38327,4.55945 -0.18686,2.80197 0.0134,5.00251 0.45527,5.00251 0.4339,0 0.98377,1.22654 1.22195,2.72563 1.92063,12.08852 5.5629,14.76826 20.39485,15.00518 5.81866,0.0929 6.71583,0.25056 4.09599,0.71964 -5.02575,0.89985 25.0718,0.9656 31.0303,0.0678 z M 252.85504,350.13924 c 0,-0.46126 0.7796,-0.83866 1.73245,-0.83866 1.93797,0 4.76618,-1.34687 6.52824,-3.10893 0.64169,-0.6417 2.26681,-1.38674 3.61138,-1.65565 2.43137,-0.48627 4.1566,-2.57589 4.66709,-5.65281 0.14705,-0.88632 0.58521,-2.0185 0.97369,-2.51597 0.38848,-0.49746 0.95091,-1.92899 1.24985,-3.18118 0.37333,-1.56386 0.93471,-2.12659 1.79294,-1.79725 0.86319,0.33123 1.24944,-0.0668 1.24944,-1.28759 0,-0.97187 -0.47174,-1.79684 -1.04832,-1.83325 -0.83866,-0.053 -0.83866,-0.15081 0,-0.48921 0.57658,-0.23266 1.04832,-1.35732 1.04832,-2.49926 0,-1.17061 -0.36581,-1.85016 -0.83865,-1.55793 -0.46127,0.28508 -0.83866,0.11865 -0.83866,-0.36983 0,-0.48849 0.37739,-0.88816 0.83866,-0.88816 0.46126,0 0.83865,-0.75479 0.83865,-1.67731 0,-0.92252 -0.34812,-1.67731 -0.77362,-1.67731 -0.42548,0 -1.21826,-1.34731 -1.76173,-2.99402 -0.54346,-1.64671 -1.47451,-3.18066 -2.069,-3.40878 -0.59449,-0.22814 -0.90329,-1.0939 -0.68624,-1.92393 0.46527,-1.77918 -4.4239,-6.01187 -6.17022,-5.34174 -0.61548,0.23618 -1.11904,0.0267 -1.11904,-0.46531 0,-0.4921 -1.54887,-1.35877 -3.44192,-1.92594 -1.89306,-0.56718 -3.63172,-1.52582 -3.86369,-2.13031 -0.44796,-1.16735 -7.79021,-1.60576 -7.79021,-0.46515 0,0.34866 -1.22654,1.14147 -2.72564,1.76179 -6.00046,2.48298 -8.12871,3.55707 -8.61856,4.34965 -0.2821,0.45645 -0.84138,0.62689 -1.24285,0.37876 -1.39157,-0.86003 -4.93417,4.09815 -5.95243,8.33094 -0.56276,2.33935 -1.1818,3.78162 -1.37564,3.20504 -0.61661,-1.83417 -1.88996,-1.12788 -1.88996,1.04833 0,1.15315 0.47174,2.12643 1.04832,2.16285 0.83866,0.053 0.83866,0.15081 0,0.48921 -1.17222,0.47301 -1.46252,5.31518 -0.31866,5.31518 0.40132,0 1.21467,1.79262 1.80745,3.98362 0.59278,2.19099 1.41237,4.41866 1.82131,4.95038 0.46381,0.60308 0.33598,1.11695 -0.3398,1.36598 -1.38775,0.51141 6.57285,8.86062 8.46961,8.88307 1.95844,0.0231 6.31149,1.11047 6.80088,1.69869 1.80876,2.17403 8.38656,3.556 8.38656,1.76199 z m 178.63392,0 c 0,-0.46126 0.85951,-0.83866 1.91003,-0.83866 1.05053,0 2.84315,-0.65924 3.98362,-1.46498 1.14047,-0.80574 3.20577,-2.07063 4.58956,-2.81085 1.38378,-0.74023 3.35857,-2.62841 4.38842,-4.19595 1.02985,-1.56755 2.25638,-3.3059 2.72563,-3.86301 0.46926,-0.55711 0.85319,-1.76224 0.85319,-2.67808 0,-0.91584 0.75793,-2.19602 1.68428,-2.84487 1.41358,-0.99011 1.66481,-2.04092 1.56315,-6.53816 -0.0773,-3.41978 -0.53358,-5.66513 -1.26113,-6.20609 -0.62701,-0.4662 -1.86447,-2.91442 -2.74992,-5.44047 -1.65806,-4.73025 -5.29045,-8.60512 -7.33218,-7.82164 -0.62119,0.23837 -1.12943,0.0308 -1.12943,-0.46132 0,-0.4921 -1.54886,-1.35877 -3.44192,-1.92594 -1.89306,-0.56718 -3.63172,-1.52582 -3.86369,-2.13031 -0.44683,-1.16443 -7.78493,-1.60686 -7.79675,-0.47009 -0.009,0.85096 -4.15712,2.72564 -6.03125,2.72564 -0.83057,0 -1.51307,0.28304 -1.51666,0.62899 -0.009,0.82192 -4.13028,2.72563 -5.90128,2.72563 -2.17555,0 -3.78545,2.52925 -5.02188,7.88967 -0.62852,2.7249 -1.28838,4.51753 -1.46635,3.98362 -0.17797,-0.53391 -0.66953,-0.97075 -1.09235,-0.97075 -1.18483,0 -0.91021,4.18436 0.27955,4.2595 0.83866,0.053 0.83866,0.15081 0,0.48921 -0.57658,0.23265 -1.04832,1.52375 -1.04832,2.86909 0,1.36245 0.46441,2.47541 1.04832,2.5123 0.83866,0.053 0.83866,0.1508 0,0.48921 -1.20039,0.48437 -1.44272,3.63786 -0.27955,3.63786 0.42282,0 0.94056,-0.47174 1.15053,-1.04832 0.20997,-0.57658 0.6616,0.37108 1.00362,2.10591 0.34202,1.73482 0.95646,3.36102 1.36543,3.61378 0.40898,0.25276 0.74359,0.83695 0.74359,1.29821 0,0.46127 -0.37739,0.60542 -0.83866,0.32035 -0.46126,-0.28508 -0.83865,-0.19882 -0.83865,0.19169 0,1.33181 8.22307,8.81424 9.09469,8.27555 0.47775,-0.29527 1.35186,-0.0196 1.94247,0.61269 0.59061,0.63225 1.78405,0.96382 2.65209,0.73682 0.86804,-0.227 1.82267,-0.0756 2.12141,0.33653 1.68979,2.33101 8.51039,3.9397 8.51039,2.00724 z m 104.41176,-88.89927 c -0.20164,-0.32626 0.56524,-1.46863 1.70418,-2.53861 1.13893,-1.06997 2.07079,-2.63442 2.07079,-3.47653 0,-0.84212 0.34742,-1.53113 0.77202,-1.53113 0.42461,0 1.03812,-1.22653 1.36335,-2.72563 0.32523,-1.4991 1.01566,-2.99492 1.53428,-3.32405 1.31051,-0.83164 1.22033,-8.39458 -0.10536,-8.83648 -0.57657,-0.19219 -1.04832,-0.7327 -1.04832,-1.20112 0,-0.46843 -0.53068,-2.04092 -1.1793,-3.49441 -0.64862,-1.45349 -1.413,-3.69016 -1.69864,-4.97036 -0.28565,-1.2802 -1.26454,-3.07283 -2.17533,-3.98362 -0.91079,-0.91079 -1.65598,-2.22207 -1.65598,-2.91396 0,-0.69189 -0.39967,-1.25799 -0.88816,-1.25799 -0.48848,0 -0.67102,-0.35132 -0.40565,-0.7807 0.26539,-0.42939 0.099,-1.01776 -0.36983,-1.30748 -0.46878,-0.28973 -0.85233,-1.27645 -0.85233,-2.19272 0,-0.91626 -0.84914,-2.54077 -1.88698,-3.61001 -2.52782,-2.60432 -3.98362,-5.17582 -3.98362,-7.03663 0,-1.87778 -3.51019,-5.15669 -7.8603,-7.34239 -1.78623,-0.89748 -3.66964,-2.29223 -4.18535,-3.09944 -1.12942,-1.76775 -2.50459,-1.87756 -3.81033,-0.30424 -0.74542,0.89816 -1.76058,0.98476 -4.45283,0.37986 -1.918,-0.43095 -4.26583,-0.72401 -5.21741,-0.65125 -3.68472,0.28177 -5.04465,-0.28261 -2.14946,-0.89202 1.81637,-0.38232 -1.22073,-0.61456 -7.96724,-0.60924 -6.18186,0.005 -9.45003,0.24204 -7.54791,0.54771 2.5732,0.41353 1.30338,0.65397 -5.45127,1.03217 -4.84324,0.27118 -8.93169,0.16372 -9.08545,-0.23879 -0.47753,-1.25014 -2.21806,-0.80767 -3.71914,0.94547 -0.78989,0.92252 -2.20649,1.67731 -3.148,1.67731 -0.94151,0 -1.95293,0.66044 -2.24759,1.46765 -0.29465,0.80721 -1.4351,2.55833 -2.53431,3.89139 -1.09922,1.33305 -1.82528,2.87534 -1.61347,3.4273 0.21181,0.55196 -0.90028,2.62791 -2.47131,4.61321 -3.14723,3.97715 -3.48703,5.0509 -1.59842,5.0509 0.69189,0 1.25798,0.3677 1.25798,0.81712 0,0.67858 4.52868,3.56829 5.23282,3.33902 0.80583,-0.26237 3.75677,1.43983 4.65211,2.68349 0.59346,0.82435 2.6401,1.91918 4.54807,2.43295 1.90799,0.51376 4.18593,1.84547 5.06211,2.95935 0.87618,1.11388 2.42317,2.02524 3.43775,2.02524 1.01457,0 3.23541,1.14635 4.93518,2.54744 1.69978,1.40111 4.33318,3.01659 5.85202,3.58999 3.45409,1.304 7.51513,3.68009 11.27171,6.595 1.59426,1.23708 4.01441,2.49428 5.37811,2.79381 1.3637,0.29952 2.8657,1.26628 3.33777,2.14835 0.48595,0.90801 2.49596,2.01614 4.63312,2.55428 2.07614,0.52279 4.13943,1.63183 4.58508,2.46455 0.6718,1.25526 2.23413,2.16569 5.00536,2.91682 1.75659,0.47612 3.8227,1.77108 5.49689,3.44529 1.08613,1.08612 2.49954,1.97477 3.14091,1.97477 0.64136,0 1.87183,0.7798 2.73436,1.73289 1.46377,1.61745 1.63826,1.63715 2.61909,0.29578 0.57796,-0.79042 0.88587,-1.70406 0.68423,-2.03031 z m -384.96512,0.0382 c 0.27262,-0.44111 1.0329,-0.59587 1.68951,-0.34391 0.65661,0.25197 2.11642,-0.46447 3.24403,-1.59208 1.73817,-1.73816 3.79846,-3.0399 5.57231,-3.5207 2.78425,-0.75466 4.33673,-1.6675 5.02585,-2.95513 0.45694,-0.85379 1.96387,-1.80122 3.34874,-2.10538 1.38488,-0.30417 2.80325,-1.02375 3.15194,-1.59907 0.52739,-0.87013 2.59712,-2.07483 4.40795,-2.56564 2.78425,-0.75467 4.33673,-1.6675 5.02585,-2.95513 0.45694,-0.8538 1.96387,-1.80122 3.34874,-2.10539 1.38488,-0.30417 2.80325,-0.99529 3.15194,-1.53582 0.85968,-1.33261 4.08882,-3.0794 5.69267,-3.0794 0.71912,0 2.26706,-0.95957 3.43987,-2.13237 1.17281,-1.17281 3.22597,-2.3511 4.56258,-2.61842 1.3366,-0.26733 3.39848,-1.38343 4.58196,-2.48024 1.18347,-1.0968 2.65221,-1.99419 3.26386,-1.99419 0.61164,0 1.59537,-0.58234 2.18607,-1.29407 0.59069,-0.71175 3.08055,-2.2119 5.53301,-3.33368 2.45246,-1.12178 5.23503,-2.81562 6.18349,-3.76408 0.94846,-0.94846 2.8773,-1.95503 4.28632,-2.23684 2.81917,-0.56384 4.00753,-2.37411 2.52903,-3.8526 -0.52251,-0.52251 -0.95001,-1.55817 -0.95001,-2.30146 0,-0.7433 -0.84914,-2.26153 -1.88698,-3.37386 -1.03784,-1.11234 -2.64177,-3.89111 -3.56429,-6.17506 -1.14149,-2.82607 -2.21314,-4.22014 -3.35463,-4.36395 -0.92252,-0.11621 -4.31908,-0.63385 -7.54791,-1.15029 -3.22883,-0.51645 -7.94627,-0.8907 -10.48321,-0.83168 -6.31641,0.14697 -7.67823,-0.13516 -4.19328,-0.86871 1.84471,-0.38829 -0.95962,-0.61785 -7.54792,-0.61785 -5.76576,0 -9.16232,0.24624 -7.54791,0.54719 2.34605,0.43734 1.42009,0.68235 -4.61261,1.22046 -9.61986,0.85809 -9.37402,0.81939 -13.83784,2.17898 -4.56773,1.39124 -7.78317,4.0676 -7.26545,6.04737 0.20798,0.79528 0.13357,1.55841 -0.16534,1.69584 -1.25892,0.57882 -8.50369,11.16358 -8.50369,12.42408 0,0.75683 -1.19509,3.18033 -2.65575,5.38552 -1.46066,2.20519 -2.65574,5.10036 -2.65574,6.43371 0,1.33335 -0.27048,2.42426 -0.60107,2.42426 -0.71006,0 -1.8728,3.31863 -1.68957,4.82228 0.0703,0.57658 -0.26619,1.04832 -0.74767,1.04832 -0.48149,0 -0.87543,0.96576 -0.87543,2.14614 0,1.21719 -0.363,1.92178 -0.83865,1.62782 -0.50008,-0.30907 -0.83866,0.70667 -0.83866,2.51597 0,1.66886 0.29732,2.85053 0.66071,2.62595 0.69842,-0.43166 1.88258,2.00653 3.53106,7.27048 0.54896,1.75294 1.71737,3.63635 2.59646,4.18535 0.87908,0.54901 1.59834,1.6622 1.59834,2.47377 0,1.57453 2.8754,2.09081 3.75132,0.67354 z"
       id="path3929" />
    <path
       style="fill:#ffffff;fill-opacity:1;stroke-width:0.838657"
       d="m 318.27028,491.00727 c 0,-0.937 -0.56341,-1.91983 -1.25202,-2.18408 -0.84762,-0.32526 -1.08914,-1.1294 -0.74774,-2.48965 0.30659,-1.22154 0.13708,-2.0092 -0.4324,-2.0092 -0.65681,0 -0.6276,-0.49491 0.0978,-1.65638 0.81626,-1.30705 0.81776,-1.87305 0.007,-2.6837 -0.56502,-0.56503 -1.02732,-1.86389 -1.02732,-2.88635 0,-1.02246 -0.47174,-2.04937 -1.04832,-2.28203 -0.83866,-0.3384 -0.83866,-0.43625 0,-0.48921 1.24926,-0.0789 1.40347,-3.56889 0.21041,-4.76195 -0.84118,-0.84118 -1.8034,-8.95933 -1.75028,-14.76707 0.0156,-1.70995 -0.33911,-3.33616 -0.78833,-3.61379 -0.44922,-0.27763 -0.81676,-1.94808 -0.81676,-3.7121 0,-3.97559 0.14903,-4.02359 14.80211,-4.76728 l 11.02816,-0.55971 -0.45573,8.92926 c -0.32699,6.40695 -0.1848,8.92926 0.50338,8.92926 0.53701,0 0.9591,1.2918 0.9591,2.9353 0,1.65694 -0.42101,2.9353 -0.96669,2.9353 -0.70014,0 -0.85053,2.83283 -0.5454,10.27354 0.23737,5.78831 0.13506,8.99205 -0.23434,7.33825 -0.49037,-2.19535 -0.61024,-1.40255 -0.47552,3.14497 l 0.18014,6.08026 h -8.62365 c -8.10896,0 -8.62365,-0.10168 -8.62365,-1.70364 z"
       id="path3931" />
    <path
       style="fill:#ffffff;fill-opacity:1;stroke-width:0.838657"
       d="m 366.77303,494.49209 c 1.53832,-0.97514 -0.70974,-1.84074 -3.13408,-1.20676 -0.96685,0.25284 -4.16569,0.20185 -7.10854,-0.1133 l -5.35064,-0.57301 0.61491,-2.72644 c 0.33821,-1.49955 0.39122,-4.02179 0.1178,-5.60499 -0.46266,-2.67908 -0.53456,-2.55891 -1.03761,1.73406 -0.29727,2.53694 -0.35081,-0.48223 -0.11897,-6.70925 0.23185,-6.22703 0.0588,-12.64275 -0.38449,-14.25717 -0.8053,-2.93269 0.70859,-19.93481 1.95453,-21.95079 0.54382,-0.87993 20.80477,-0.31185 23.32143,0.65388 1.23143,0.47255 0.72511,10.52558 -0.57183,11.35375 -0.47989,0.30643 -0.66892,2.38027 -0.43699,4.79401 0.22481,2.33967 0.0853,4.05406 -0.31001,3.80974 -1.17329,-0.72513 -1.81605,2.09962 -0.76573,3.36518 0.73247,0.88257 0.72734,1.2458 -0.0211,1.49529 -0.59361,0.19787 -1.1543,2.91117 -1.40328,6.79081 -0.22806,3.5537 -0.74243,6.46127 -1.14303,6.46127 -0.4006,0 -0.72836,1.34246 -0.72836,2.98325 0,4.96052 -1.7048,10.43687 -3.24453,10.42242 -1.06938,-0.01 -1.12385,-0.16767 -0.24945,-0.72195 z"
       id="path3933" />
  </g>
</svg>
