<svg xmlns="http://www.w3.org/2000/svg" viewBox="0 0 147 40.41"><defs><style>.a{fill:#fff;}.b{fill:#ed2724;}.c{fill:#f05d55;}.d{fill:#009a9a;}.e{fill:#42beb2;}.f{fill:#407ec0;}.g{fill:#55a2d8;}.h{fill:#dc1d3e;}.i{fill:#ee4070;}</style></defs><path class="a" d="M57.26,1.79c7.4,0,11.34,4.19,11.34,9.52a8.34,8.34,0,0,1-5.42,8.14v.19c3.65,1.14,6.07,4.1,6.07,9,0,5.87-4.15,10.21-11.69,10.21-6.84,0-12.08-3.29-12.72-10.28a.75.75,0,0,1,.74-.82h5.24a.74.74,0,0,1,.73.64c.39,2.77,2.42,4.69,5.86,4.69s5.23-2.17,5.23-5c0-4.05-2.57-5.53-7.7-5.53h-.68a.75.75,0,0,1-.75-.74V17.58a.76.76,0,0,1,.75-.75h.68c4.05,0,7-1.13,7-4.68,0-2.81-1.73-4.49-4.89-4.49a4.6,4.6,0,0,0-4.93,3.86.74.74,0,0,1-.73.58H46.09a.75.75,0,0,1-.75-.82C46,5.14,50.65,1.79,57.26,1.79Z"/><path class="a" d="M75.66,9H72.37a.75.75,0,0,1-.75-.74V3.38a.75.75,0,0,1,.75-.75H82.76a.75.75,0,0,1,.75.75V37.84a.75.75,0,0,1-.75.74H77.15a.74.74,0,0,1-.74-.74V9.74A.76.76,0,0,0,75.66,9Z"/><path class="a" d="M104.31,31.58H88.09a.75.75,0,0,1-.75-.75V26.39a.76.76,0,0,1,.14-.43L103.25,3.39a.74.74,0,0,1,.61-.32h6.9a.76.76,0,0,1,.75.75V25.26a.29.29,0,0,0,.3.3h3.29a.76.76,0,0,1,.75.75v4.52a.75.75,0,0,1-.75.75h-3.29a.29.29,0,0,0-.3.3v6a.75.75,0,0,1-.75.74h-5.41a.75.75,0,0,1-.75-.74v-6A.29.29,0,0,0,104.31,31.58Zm.74-6.17V11a.15.15,0,0,0-.27-.08L95.09,25.33a.15.15,0,0,0,.13.23h9.68A.15.15,0,0,0,105.05,25.41Z"/><path class="a" d="M132.47,39c-7.94,0-13.71-5.53-13.71-14.11s5.62-14.1,13.71-14.1c7.89,0,13.46,5.37,13.46,13.51a19.13,19.13,0,0,1-.1,2,.76.76,0,0,1-.75.66h-19a.3.3,0,0,0-.3.33,6.35,6.35,0,0,0,6.53,6,5.61,5.61,0,0,0,5.28-2.92.72.72,0,0,1,.64-.38h6a.75.75,0,0,1,.69,1C143.13,35.56,138.76,39,132.47,39Zm-6.31-16.67h12.31a.29.29,0,0,0,.29-.33c-.25-3.41-3-5.54-6.49-5.54a6.3,6.3,0,0,0-6.4,5.52A.3.3,0,0,0,126.16,22.36Z"/><path class="b" d="M15.33,1.34h7.51a.89.89,0,0,1,.89.89v5a.89.89,0,0,1-.89.89H15.33a0,0,0,0,1,0,0V1.34A0,0,0,0,1,15.33,1.34Z"/><path class="c" d="M15.33,1.34V8.11H8.89a.33.33,0,0,1-.33-.33V6.4a5.06,5.06,0,0,1,5.06-5.06Z"/><path class="b" d="M24.51,8.89h5.88a.89.89,0,0,1,.89.89v5a.89.89,0,0,1-.89.89H24.51a0,0,0,0,1,0,0V8.89A0,0,0,0,1,24.51,8.89Z" transform="translate(40.17 -15.62) rotate(90)"/><path class="c" d="M31.28,6.1V8.89H24.51V1.67a.33.33,0,0,1,.33-.33h1.68A4.76,4.76,0,0,1,31.28,6.1Z"/><path class="d" d="M.21,17.2H7.69a.89.89,0,0,1,.89.89v5a.89.89,0,0,1-.89.89H.21a0,0,0,0,1,0,0V17.2A0,0,0,0,1,.21,17.2Z" transform="translate(-16.19 24.98) rotate(-90)"/><path class="e" d="M7.78,24.77v6.41a.33.33,0,0,1-.33.33H6.07A5.06,5.06,0,0,1,1,26.45V24.77Z"/><path class="d" d="M8.56,8.89h5.88a.89.89,0,0,1,.89.89v5a.89.89,0,0,1-.89.89H8.56a0,0,0,0,1,0,0V8.89a0,0,0,0,1,0,0Z"/><path class="e" d="M8.56,8.89v6.77H1.34A.33.33,0,0,1,1,15.33V13.65A4.76,4.76,0,0,1,5.78,8.89Z"/><path class="f" d="M16.11,32.26h7.51a.89.89,0,0,1,.89.89v5a.89.89,0,0,1-.89.89H16.11a0,0,0,0,1,0,0V32.26a0,0,0,0,1,0,0Z" transform="translate(40.62 71.28) rotate(-180)"/><path class="g" d="M31.28,32.59V34A5.06,5.06,0,0,1,26.22,39H24.51V32.26H31A.33.33,0,0,1,31.28,32.59Z"/><path class="f" d="M8.56,24.74h5.87a.89.89,0,0,1,.89.89v5a.89.89,0,0,1-.89.89H8.56a0,0,0,0,1,0,0V24.74A0,0,0,0,1,8.56,24.74Z" transform="translate(-16.17 40.07) rotate(-90)"/><path class="g" d="M15.33,31.51V38.7A.33.33,0,0,1,15,39H13.32a4.76,4.76,0,0,1-4.76-4.76V31.51Z"/><path class="h" d="M31.32,16.47h7.35a.89.89,0,0,1,.89.89v5a.89.89,0,0,1-.89.89H31.32a0,0,0,0,1,0,0V16.47A0,0,0,0,1,31.32,16.47Z" transform="translate(55.31 -15.59) rotate(90)"/><path class="i" d="M32.06,15.74V9.2a.33.33,0,0,1,.33-.33h1.39a5.06,5.06,0,0,1,5,5.06v1.81Z"/><path class="h" d="M24.51,24.72h5.88a.89.89,0,0,1,.89.89v5a.89.89,0,0,1-.89.89H24.51a0,0,0,0,1,0,0V24.72A0,0,0,0,1,24.51,24.72Z" transform="translate(55.79 56.21) rotate(-180)"/><path class="i" d="M31.28,31.49V24.72H38.5a.33.33,0,0,1,.33.33v1.68a4.76,4.76,0,0,1-4.76,4.76Z"/></svg>