<?xml version="1.0" encoding="UTF-8" standalone="no"?>
<!-- Created with Inkscape (http://www.inkscape.org/) -->

<svg
   version="1.1"
   id="svg2294"
   width="63.976318"
   height="67.763321"
   viewBox="0 0 63.976318 67.763321"
   sodipodi:docname="Crio_Dark.png"
   inkscape:version="1.2.2 (b0a8486541, 2022-12-01)"
   inkscape:dataloss="true"
   xmlns:inkscape="http://www.inkscape.org/namespaces/inkscape"
   xmlns:sodipodi="http://sodipodi.sourceforge.net/DTD/sodipodi-0.dtd"
   xmlns="http://www.w3.org/2000/svg"
   xmlns:svg="http://www.w3.org/2000/svg">
  <defs
     id="defs2298" />
  <sodipodi:namedview
     id="namedview2296"
     pagecolor="#696969"
     bordercolor="#000000"
     borderopacity="0.25"
     inkscape:showpageshadow="2"
     inkscape:pageopacity="0"
     inkscape:pagecheckerboard="0"
     inkscape:deskcolor="#3a3a3a"
     showgrid="false"
     inkscape:zoom="7.4"
     inkscape:cx="126.55405"
     inkscape:cy="110.40541"
     inkscape:window-width="1896"
     inkscape:window-height="1026"
     inkscape:window-x="10"
     inkscape:window-y="40"
     inkscape:window-maximized="1"
     inkscape:current-layer="g2300" />
  <g
     inkscape:groupmode="layer"
     inkscape:label="Image"
     id="g2300"
     transform="translate(-91.841599,-78.047485)">
    <path
       style="display:inline;fill:#ffffff;fill-opacity:1;stroke:none;stroke-width:0.482744;stroke-opacity:1"
       d="m 122.05366,148.32846 c -1.5556,-0.30625 -25.741831,-13.78485 -27.481253,-15.31487 -0.765954,-0.67375 -1.703606,-1.85361 -2.08367,-2.62191 -0.729217,-1.47412 -3.052296,-21.20624 -3.052296,-25.92605 0,-2.60599 0.773607,-4.969965 2.175448,-6.647713 0.549961,-0.658203 0.506744,-1.055786 -0.293016,-2.695623 -0.515966,-1.05795 -0.938121,-2.402009 -0.938121,-2.986799 0,-1.636306 3.246462,-8.043004 4.516403,-8.912847 1.790732,-1.226559 4.884708,-1.744204 8.204085,-1.372605 3.11292,0.34849 4.56141,1.293902 5.95883,3.889276 0.47221,0.877015 0.71564,0.804176 4.18758,-1.25305 2.02742,-1.201306 3.788,-2.4567 3.9124,-2.789763 0.12452,-0.333062 -0.31122,-2.276508 -0.96809,-4.318766 -0.65684,-2.042259 -1.04952,-3.712367 -0.87261,-3.711352 0.177,0.001 1.01734,0.445231 1.8676,0.987147 2.04369,1.302559 2.54452,1.261594 2.02542,-0.165673 -0.23024,-0.633034 -0.75969,-2.351625 -1.17657,-3.819088 l -0.75795,-2.668117 3.13402,3.202123 3.13405,3.202121 -0.31362,-2.22108 c -0.31215,-2.210754 -0.29167,-2.190235 4.40529,4.414392 4.15214,5.838531 5.072,6.842798 7.65892,8.361735 2.80232,1.645388 2.96377,1.68227 3.44618,0.787245 0.27833,-0.516461 1.04436,-1.527393 1.70223,-2.246515 2.08272,-2.276569 9.31222,-2.437818 12.46543,-0.278032 1.24945,0.855813 4.5164,7.265702 4.5164,8.861375 0,0.556482 -0.44385,1.970288 -0.98638,3.141794 l -0.98638,2.130011 1.20368,1.495366 c 1.91973,2.384958 1.9816,4.184058 0.59981,17.439958 -1.32031,12.66606 -1.75349,14.6101 -3.66515,16.44827 -1.43989,1.38454 -25.5995,14.82373 -27.79467,15.46127 -1.7153,0.49817 -1.84072,0.50247 -3.744,0.12775 z m 16.46712,-9.58668 c 6.89252,-3.83245 12.81149,-7.19972 13.1532,-7.48284 1.53154,-1.26891 2.13492,-3.88501 3.20219,-13.88365 1.46115,-13.68834 1.45597,-15.10146 -0.062,-16.9873 -0.67245,-0.83543 -6.17928,-4.471389 -12.57864,-8.305226 -9.93733,-5.953426 -11.58954,-7.116921 -13.01282,-9.163722 -1.80604,-2.597185 -2.25328,-2.893505 -1.8625,-1.233934 0.18592,0.789269 -0.37874,0.360858 -1.95159,-1.480898 -1.2172,-1.425292 -2.35762,-2.591359 -2.53426,-2.59126 -0.17659,9.8e-5 -0.12349,0.720563 0.11804,1.601034 0.24157,0.88047 0.4392,1.662363 0.4392,1.737538 0,0.07518 -0.84141,-0.312047 -1.86981,-0.860495 -1.02839,-0.548447 -1.97508,-0.997178 -2.10376,-0.997178 -0.12878,0 0.0595,0.869449 0.41819,1.932107 l 0.65209,1.93211 -12.12281,7.29228 c -15.519416,9.335461 -15.452087,9.287902 -16.305632,11.517884 -0.650641,1.69988 -0.612803,2.84824 0.433675,13.16212 1.28542,12.66883 1.624529,14.37412 3.151018,15.8456 1.043714,1.00609 17.607089,10.45596 24.205889,13.81011 2.39434,1.21704 3.68994,1.60334 4.70176,1.40188 0.76819,-0.15302 7.03605,-3.41372 13.92858,-7.24616 z M 100.73891,91.641998 c 3.39199,-2.056872 6.16727,-3.959391 6.16727,-4.227821 0,-2.800814 -5.72467,-4.403301 -9.632553,-2.696411 -1.203727,0.525764 -1.924476,1.418047 -3.053843,3.780634 -0.813041,1.700849 -1.478259,3.397951 -1.478259,3.771342 0,0.631671 1.337084,3.112025 1.677596,3.112025 0.0839,0 2.927796,-1.682897 6.319789,-3.739769 z m 53.56454,2.523203 c 1.04006,-1.659351 0.98266,-2.11385 -0.71572,-5.666801 -1.12938,-2.362587 -1.85013,-3.25487 -3.05384,-3.780634 -3.26573,-1.426406 -7.99459,-0.568272 -9.26587,1.681458 l -0.78958,1.397271 6.23142,3.765136 c 3.42728,2.070824 6.36633,3.77751 6.53125,3.792637 0.16482,0.01504 0.64293,-0.519957 1.06234,-1.189067 z"
       id="path83987"
       inkscape:export-filename="../Code/2023/v1-portfolio/src/assets/crio.svg"
       inkscape:export-xdpi="96"
       inkscape:export-ydpi="96"
       sodipodi:nodetypes="sssssssssssccsssscccsssccssscsssssssssssccsscsssccssssscssssssssscssscscc" />
    <path
       style="display:inline;fill:#ffffff;stroke:none;stroke-width:0.27027;stroke-opacity:1"
       d="m 119.97242,144.36385 c -4.93033,-2.42207 -19.38087,-10.55692 -22.803848,-12.83729 -0.814042,-0.54231 -1.743781,-1.38024 -2.066087,-1.86207 -0.750448,-1.12186 -1.266333,-4.01311 -2.11023,-11.82665 -1.112559,-10.30106 -1.350599,-13.90185 -1.002318,-15.16188 0.756544,-2.737072 1.249218,-3.099279 17.582003,-12.926044 6.10706,-3.674361 11.10374,-6.717435 11.10374,-6.762387 0,-0.04495 -0.1639,-0.553103 -0.36422,-1.129224 -0.20032,-0.576122 -0.44672,-1.385298 -0.54755,-1.798169 l -0.18335,-0.750675 1.62093,0.818243 c 2.33263,1.177507 2.4816,1.134289 2.02725,-0.588109 -0.20405,-0.773493 -0.33312,-1.444223 -0.28683,-1.490513 0.0463,-0.04629 1.04194,0.921029 2.21256,2.149594 2.09169,2.195236 2.13085,2.220723 2.27075,1.477943 0.13825,-0.734046 0.18282,-0.701638 1.54763,1.125265 1.71017,2.289182 2.74184,3.037665 11.9731,8.686582 3.93919,2.410521 8.62162,5.373941 10.4054,6.585377 4.8136,3.269107 4.91645,3.592857 4.04591,12.736967 -1.0295,10.81381 -1.86942,16.63495 -2.6791,18.56756 -0.56113,1.33937 -1.22761,1.84098 -6.23167,4.69016 -13.74214,7.82439 -21.30231,11.74228 -22.65856,11.74228 -0.5532,0 -2.06518,-0.56744 -3.85551,-1.44696 z m 9.47697,-10.45369 c 0.25515,-0.25544 0.67165,-1.96437 1.08686,-4.45945 0.67494,-4.05585 1.08124,-5.53179 1.52279,-5.53179 0.4634,0 2.44755,-2.00612 2.92218,-2.95454 1.01528,-2.02876 0.97311,-3.26168 -0.11156,-3.26168 -0.47479,0 -0.78826,0.34775 -1.39,1.54198 -1.14032,2.26312 -1.56032,2.47583 -5.30398,2.68624 L 125,122.10941 l 0.004,-2.40606 c 0.002,-1.32333 0.0935,-2.53814 0.2027,-2.69957 0.10921,-0.16144 0.89789,-0.73763 1.75262,-1.28043 1.34157,-0.85197 1.55405,-1.10066 1.55405,-1.81884 0,-1.9411 -1.30694,-2.78131 -4.32432,-2.78003 -3.22398,10e-4 -5.28245,1.3973 -4.61893,3.13228 0.29613,0.77432 0.9532,1.34666 2.35448,2.05088 1.29514,0.65088 1.44486,1.04341 1.44995,3.80146 l 0.004,2.00099 -3.29664,-0.17725 c -3.08568,-0.16592 -3.3448,-0.2234 -4.04925,-0.89832 -0.41395,-0.39658 -0.95732,-1.27807 -1.2075,-1.95887 -0.59211,-1.61126 -0.7367,-1.75288 -1.4176,-1.38848 -1.21951,0.65267 -0.44238,3.75941 1.30903,5.23313 0.45166,0.38005 1.04665,0.76255 1.32219,0.85 0.74557,0.23664 1.04227,1.11704 1.66253,4.93321 0.66718,4.10487 1.15348,5.27529 2.29886,5.53292 0.44595,0.10031 2.66141,0.16112 4.92326,0.13513 3.28826,-0.0378 4.19536,-0.13024 4.52613,-0.4614 z M 111.3834,108.8856 c 1.77192,-0.84084 2.54105,-2.6109 1.98988,-4.57948 -0.6318,-2.25658 -2.84413,-3.29733 -5.09483,-2.39678 -1.34601,0.53857 -1.9296,1.49385 -1.92116,3.14481 0.0163,3.19874 2.44995,5.05391 5.02611,3.83145 z m 27.82899,-0.2273 c 0.95663,-0.62681 1.73136,-2.01034 1.73255,-3.09401 5.4e-4,-0.50721 -0.2989,-1.43396 -0.66545,-2.05943 -1.63522,-2.79029 -5.41388,-2.58956 -6.38038,0.33893 -0.62511,1.89412 0.3963,4.53368 2.02479,5.23251 0.77549,0.33278 2.47171,0.11718 3.28849,-0.418 z"
       id="path84137" />
    <path
       style="display:inline;fill:#ffffff;fill-opacity:1;stroke:none;stroke-width:0.27027;stroke-opacity:1"
       d="m 120.42017,131.90968 c -0.28527,-0.34372 -0.68289,-2.43249 -1.22533,-6.43671 l -0.17391,-1.28378 h 2.21355 2.21354 l -0.16029,1.28378 c -0.0881,0.70608 -0.24133,2.37838 -0.34039,3.71622 -0.0991,1.33784 -0.30074,2.58446 -0.44817,2.77027 -0.36423,0.45904 -1.68292,0.42747 -2.079,-0.0498 z"
       id="path84143" />
    <path
       style="display:inline;fill:#ffffff;fill-opacity:1;stroke:none;stroke-width:0.27027;stroke-opacity:1"
       d="m 125.44901,130.50085 c -0.0962,-1.01871 -0.17576,-2.78176 -0.17682,-3.91788 -0.002,-2.38278 0.009,-2.39378 2.45262,-2.39378 1.34504,0 1.59873,0.0752 1.5946,0.47297 -0.0105,1.01061 -1.05905,6.9153 -1.26442,7.12036 -0.11943,0.11926 -0.71529,0.29642 -1.32412,0.39369 l -1.10696,0.17684 z"
       id="path84145" />
  </g>
</svg>
