<?xml version="1.0" encoding="UTF-8" standalone="no"?>
<!-- Created with Inkscape (http://www.inkscape.org/) -->

<svg
   version="1.1"
   id="svg117"
   width="120.3417"
   height="117.76001"
   viewBox="0 0 120.3417 117.76001"
   sodipodi:docname="PNB-MetLife.jpg"
   xmlns:inkscape="http://www.inkscape.org/namespaces/inkscape"
   xmlns:sodipodi="http://sodipodi.sourceforge.net/DTD/sodipodi-0.dtd"
   xmlns="http://www.w3.org/2000/svg"
   xmlns:svg="http://www.w3.org/2000/svg">
  <defs
     id="defs121" />
  <sodipodi:namedview
     id="namedview119"
     pagecolor="#ffffff"
     bordercolor="#000000"
     borderopacity="0.25"
     inkscape:showpageshadow="2"
     inkscape:pageopacity="0.0"
     inkscape:pagecheckerboard="0"
     inkscape:deskcolor="#d1d1d1"
     showgrid="false" />
  <g
     inkscape:groupmode="layer"
     inkscape:label="Image"
     id="g123"
     transform="translate(-179.38845,-315.86181)">
    <path
       style="display:inline;fill:#a11c3e;stroke-width:0.32"
       d="m 230.73864,433.27376 c -17.11493,-1.5287 -32.91405,-11.00758 -42.35588,-25.41193 -3.57713,-5.45722 -6.42151,-12.35581 -8.06237,-19.55392 -0.72117,-3.16365 -0.72181,-3.1928 -0.82683,-37.80608 l -0.1051,-34.64 h 60.17085 60.17085 v 58.88 58.88 l -33.04001,-0.044 c -18.172,-0.0243 -34.35018,-0.16103 -35.95151,-0.30407 z m 53.63152,-57.73193 v -45.6 h -11.20001 -11.2 l -0.006,15.12 c -0.006,17.22931 -0.0705,17.83754 -2.37574,22.50845 -2.79377,5.66089 -8.26423,10.41187 -13.93871,12.10547 -5.91399,1.76509 -11.40551,1.15162 -17.92,-2.00192 -3.26797,-1.58195 -6.45411,-4.76371 -8.06305,-8.052 -2.2594,-4.61766 -2.81052,-8.49085 -2.81433,-19.77869 -0.003,-10.05897 -0.54366,-13.60537 -2.7632,-18.13827 l -0.86327,-1.76304 H 203.1711 c -7.9197,0 -10.01921,0.0849 -9.88741,0.4 0.61393,1.46755 1.88895,5.99981 2.40811,8.56 1.10745,5.46128 1.36117,8.74198 1.45103,18.76246 0.0779,8.68836 0.168,10.205 0.74824,12.59754 2.43123,10.02474 7.50984,16.89366 17.26847,23.35606 11.91433,7.88992 25.49415,9.0065 42.51819,3.49597 2.12742,-0.68861 3.96342,-1.25203 4.08,-1.25203 0.11659,0 0.21197,5.688 0.21197,12.64 v 12.64 h 11.2 11.2 v -45.6 z m -38.42063,1.10931 c 4.62621,-1.63577 8.87398,-5.50649 11.0502,-10.06931 1.33686,-2.80294 1.77042,-4.86704 1.77042,-8.42851 0,-5.27565 -1.81812,-9.63607 -5.56414,-13.34454 -3.88762,-3.84864 -8.36785,-5.72144 -13.63586,-5.69994 -6.3147,0.0259 -11.43188,2.45488 -15.21425,7.22224 -2.78583,3.51126 -3.9762,7.08169 -3.98195,11.94352 -0.007,5.79411 1.67667,9.87376 5.73902,13.90723 2.56622,2.54797 4.74973,3.85078 8.12764,4.84938 2.82619,0.83548 8.82148,0.64089 11.70892,-0.38007 z M 233.4693,374.081 c -0.83118,-0.8312 -0.74586,-1.30784 1.28511,-7.17917 2.6995,-7.80397 3.9244,-11.71802 3.72846,-11.91395 -0.28921,-0.28922 -1.5851,0.39123 -2.83475,1.48841 -1.01478,0.89101 -1.16154,0.93501 -1.55144,0.46522 -0.37685,-0.45408 -0.18022,-0.75427 1.57434,-2.40342 4.3975,-4.13335 8.17505,-5.32506 7.56101,-2.38528 -0.11362,0.54396 -1.35134,4.46953 -2.75049,8.72348 -2.5804,7.84541 -2.95036,9.37607 -2.32055,9.60087 0.19296,0.0689 1.22054,-0.51501 2.28351,-1.29754 1.42032,-1.04557 2.02719,-1.32825 2.28917,-1.06627 0.19607,0.19606 0.35648,0.54051 0.35648,0.76544 0,1.00538 -6.99671,5.86304 -8.44479,5.86304 -0.28337,0 -0.81259,-0.29738 -1.17606,-0.66083 z m 8.35614,-25.50243 c -0.43251,-0.35024 -0.76398,-1.07306 -0.87638,-1.91108 -0.1645,-1.22639 -0.0791,-1.44947 0.94816,-2.47673 1.22694,-1.22694 1.96153,-1.38739 3.00517,-0.65638 1.41325,0.98988 1.1743,3.69379 -0.43856,4.96246 -1.00856,0.79331 -1.73192,0.81574 -2.63839,0.0817 z"
       id="path399" />
    <path
       style="fill:#fdbe11;fill-opacity:1;stroke-width:0.974939"
       d="m 262.74594,408.55679 c 0,-6.67106 -0.34401,-12.3418 -0.76445,-12.60165 -0.42045,-0.25985 -3.74739,0.35468 -7.3932,1.36564 -18.99609,5.26746 -32.59596,2.46181 -45.36322,-9.35842 -3.94828,-3.65542 -6.48407,-7.08155 -8.39833,-11.34709 -2.47956,-5.5252 -2.81461,-7.60621 -3.49751,-21.72361 -0.41538,-8.58718 -1.24409,-17.26415 -1.84156,-19.28216 -0.59747,-2.01802 -0.81881,-4.10195 -0.49187,-4.63096 0.32695,-0.52901 4.48078,-0.96184 9.23073,-0.96184 h 8.63627 l 1.48105,4.14349 c 0.86802,2.42843 1.73976,9.57824 2.10609,17.27361 0.38097,8.00306 1.18677,14.47488 2.06359,16.57396 3.30531,7.91277 10.82313,12.64897 20.13399,12.68433 9.46038,0.0359 16.94815,-4.55517 21.43084,-13.14026 1.77158,-3.39286 2.09325,-6.08571 2.47472,-20.71744 l 0.43846,-16.81769 h 10.60153 10.60152 v 45.33464 45.33464 h -10.72433 -10.72432 z"
       id="path832" />
    <path
       style="fill:#fdbe11;fill-opacity:1;stroke-width:0.974939"
       d="m 231.06044,374.98376 c -11.45507,-7.13861 -13.63091,-19.89457 -4.98769,-29.24056 5.76495,-6.23369 13.98387,-7.69557 21.85187,-3.88674 10.71524,5.18716 13.35742,20.15911 5.1981,29.45513 -4.69379,5.3477 -16.27927,7.27605 -22.06228,3.67217 z m 9.29874,-2.9496 c 3.44158,-2.88515 3.37869,-5.3792 -0.0812,-3.21849 -1.04805,0.65452 -1.90548,1.07663 -1.90541,0.93803 7e-5,-0.13859 1.09029,-3.76177 2.42271,-8.0515 1.33242,-4.28973 2.42917,-8.56727 2.43722,-9.50565 0.0215,-2.51438 -3.24663,-2.11752 -6.73514,0.81787 -3.42481,2.88179 -3.9176,4.76803 -1.04974,4.01807 1.07243,-0.28045 1.94988,-0.40846 1.94988,-0.28447 0,0.12399 -1.09681,3.45017 -2.43735,7.39153 -1.34054,3.94135 -2.43735,7.96669 -2.43735,8.94521 0,2.73816 3.9483,2.20882 7.83634,-1.0506 z m 4.79899,-23.93426 c 1.64887,-1.98677 0.8554,-4.92153 -1.33063,-4.92153 -2.26461,0 -4.02387,2.60427 -3.20348,4.74217 0.75797,1.97524 2.97101,2.06278 4.53411,0.17936 z"
       id="path834" />
  </g>
</svg>
